<svg version="1.1" xmlns="http://www.w3.org/2000/svg" viewBox="0 0 900.0593872070312 667.5186462402344" width="900.0593872070312" height="667.5186462402344">
  <!-- svg-source:excalidraw -->
  
  <defs>
    <style>
      @font-face {
        font-family: "Virgil";
        src: url("https://excalidraw.com/Virgil.woff2");
      }
      @font-face {
        font-family: "Cascadia";
        src: url("https://excalidraw.com/Cascadia.woff2");
      }
    </style>
  </defs>
  <rect x="0" y="0" width="900.0593872070312" height="667.5186462402344" fill="#ffffff"></rect><g stroke-linecap="round" transform="translate(10 20.753128051757812) rotate(0 152.76718139648438 119.0875015258789)"><path d="M-1.41 -1.33 C114.03 1.69, 228.07 2.68, 304.44 0.19 M0.53 -0.5 C120.96 -0.52, 240.87 -1.09, 305.05 0.15 M305.57 0.69 C306.7 67.9, 307.9 137, 304.89 238.4 M306.16 0.72 C305.74 67.96, 304.21 137.26, 304.98 237.76 M306.74 238.05 C188.01 236.32, 72.32 237.32, -0.26 238.47 M305.42 238.86 C201.44 236.67, 95.6 236.19, 0.72 237.54 M-1.41 239.54 C2.82 156.26, 2.06 74.28, -0.16 0.27 M0.27 237.62 C0.65 178.98, 0.66 120.82, -0.29 -0.1" stroke="#000000" stroke-width="1" fill="none"></path></g><g stroke-linecap="round" transform="translate(113.67819213867188 80.89997863769531) rotate(0 68.96873474121094 12.935943603515625)"><path d="M-0.19 0.75 C54.53 -2.06, 110.72 -2.51, 139.74 -1.65 M0.89 0.78 C38.72 0.74, 76.86 -0.1, 137.28 0.98 M136.21 1.06 C137 4.45, 136.03 12.39, 137.54 25.26 M137.76 -0.49 C137.68 5.75, 137.87 11.76, 137.73 25.62 M138.54 24.05 C84.54 25.61, 35.32 25.04, 0.5 25.09 M136.95 24.91 C97.99 25.14, 58.19 24.51, 0.59 25.68 M0.27 25.19 C-0.63 18.04, -0.64 7.61, 0.92 -1.75 M0.28 25.55 C0.12 20.49, 0.84 14.71, -0.22 0.21" stroke="#000000" stroke-width="1" fill="none"></path></g><g transform="translate(20.971923828125 77.87187194824219) rotate(0 45 12.5)"><text x="0" y="18" font-family="Virgil, Segoe UI Emoji" font-size="20px" fill="#000000" text-anchor="start" style="white-space: pre;" direction="ltr">username</text></g><g stroke-linecap="round" transform="translate(114.95942687988281 137.1702880859375) rotate(0 68.96873474121094 12.935943603515625)"><path d="M0.4 0.11 C30.79 -0.76, 60.64 -0.08, 136.71 -0.24 M0.11 0.67 C51.15 -0.21, 102.35 -1.32, 137.38 -0.57 M136.08 -0.06 C136.74 8.76, 136.81 13.78, 138.29 27.09 M137.81 -0.36 C138.86 5.76, 137.97 10.48, 137.03 25.25 M136.84 27.27 C99.37 26.72, 66.08 26.17, 1.04 24.67 M138.12 26.52 C92.01 26.11, 45.15 26.95, 0.99 26.52 M0.25 27.41 C0.85 19.99, 0.18 11.96, -1.41 -0.78 M0.41 25.9 C-0.76 18.5, 0.83 13.6, -0.25 0.42" stroke="#000000" stroke-width="1" fill="none"></path></g><g stroke-linecap="round" transform="translate(88.78128051757812 192.09063720703125) rotate(0 48.42811584472656 17.5)"><path d="M1.98 1.29 C25.93 -0.2, 52.16 -0.29, 98.39 0.89 M-0.71 -0.39 C34.59 0.08, 69.8 0.24, 96.89 -0.69 M96.35 0.84 C99.1 8.42, 97.2 12.98, 98.1 33.09 M96.11 0.17 C96.4 13.64, 96.82 24.7, 97.24 34.85 M98.67 36 C65.15 34.94, 38.12 36.7, -1.43 33.46 M97.25 35.2 C61.48 36.26, 25.39 34.68, -0.09 35.39 M-0.82 36.39 C-2 20.76, -0.86 11.11, 1.94 -0.46 M-0.67 34.63 C-0.56 24.76, 0.26 14.17, -0.18 -0.78" stroke="#000000" stroke-width="1" fill="none"></path></g><g transform="translate(116.20939636230469 197.09063720703125) rotate(0 21 12.5)"><text x="21" y="18" font-family="Virgil, Segoe UI Emoji" font-size="20px" fill="#000000" text-anchor="middle" style="white-space: pre;" direction="ltr">login</text></g><g transform="translate(17.36566162109375 136.41561889648438) rotate(0 45 12.5)"><text x="0" y="18" font-family="Virgil, Segoe UI Emoji" font-size="20px" fill="#000000" text-anchor="start" style="white-space: pre;" direction="ltr">password</text></g><g stroke-linecap="round"><g transform="translate(343.78753662109375 94.08436584472656) rotate(0 62.59099893122914 10.088474080949084)"><path d="M-0.63 -0.81 C20.42 2.6, 104.86 16.21, 125.81 20.06 M1.25 1.37 C22.25 4.93, 104.83 17.81, 125.35 20.99" stroke="#000000" stroke-width="1" fill="none"></path></g><g transform="translate(343.78753662109375 94.08436584472656) rotate(0 62.59099893122914 10.088474080949084)"><path d="M94.55 28.33 C101.75 25.7, 113.17 25.43, 127.03 22.06 M95.05 27.58 C106.92 25.01, 116.76 22.19, 124.92 20.31" stroke="#000000" stroke-width="1" fill="none"></path></g><g transform="translate(343.78753662109375 94.08436584472656) rotate(0 62.59099893122914 10.088474080949084)"><path d="M97.71 8.06 C104 10.73, 114.6 15.8, 127.03 22.06 M98.21 7.31 C108.95 12.14, 117.64 16.72, 124.92 20.31" stroke="#000000" stroke-width="1" fill="none"></path></g></g><g stroke-linecap="round" transform="translate(506.4781494140625 10) rotate(0 191.79061889648438 123.63594055175781)"><path d="M-0.79 0.52 C127.66 0.11, 257.41 -1.2, 383.64 0.17 M-0.07 -0.49 C90.8 -1.1, 181.8 -1.65, 383.11 -0.19 M382.86 -0.91 C383.18 87.73, 384.67 176.48, 383.11 248.53 M382.87 0.06 C384.78 82.05, 385.92 162.82, 383.07 247.61 M382.59 247.35 C270.67 248.24, 156.57 247.69, 0.92 248.33 M384.12 246.72 C254.49 247.66, 125.07 248, 0.39 247.86 M-0.27 246.48 C0.6 183.38, -0.86 123.09, -1.2 0.56 M-0.41 247.23 C-1.7 160.24, -1.81 72.12, 0.3 0.25" stroke="#000000" stroke-width="1" fill="none"></path></g><g transform="translate(555.518798828125 26.921875) rotate(0 43.5 12.5)"><text x="0" y="18" font-family="Virgil, Segoe UI Emoji" font-size="20px" fill="#000000" text-anchor="start" style="white-space: pre;" direction="ltr">task-list</text></g><g stroke-linecap="round" transform="translate(553.7094116210938 66.64999389648438) rotate(0 143.63128662109375 24.25469207763672)"><path d="M-0.08 -0.14 C114.19 -0.34, 227.42 -2.29, 286.65 1.48 M0.15 -0.52 C86.7 -1.77, 172.33 -1.89, 286.8 0.4 M286.21 -0.71 C285.36 13.76, 288.74 29.32, 286.75 47.36 M287.9 -0.92 C286.18 16.93, 287.09 34.52, 287.5 48.11 M288.04 49.05 C174.49 47.31, 62.04 46.29, 1.44 47.69 M287.88 49.07 C173.47 50.05, 60.75 51.09, -0.61 48.71 M-1.84 47.4 C-1.38 29.28, 0.7 8.64, -1.29 0.89 M-0.04 47.63 C-0.4 36.64, -0.4 24.39, -0.97 0.68" stroke="#000000" stroke-width="1" fill="none"></path></g><g stroke-linecap="round" transform="translate(559.9594116210938 142.30624389648438) rotate(0 143.2796630859375 29.457809448242188)"><path d="M1.05 -0.97 C102.75 -0.76, 203.35 -0.24, 286.13 1.07 M0.36 -0.18 C69.63 -2.77, 139.56 -2.43, 287.22 -0.22 M285.97 -0.38 C288.33 13.81, 287.98 31.59, 287.95 60.28 M287.01 0.47 C285.34 11.68, 285.71 23.52, 287.5 59.35 M287.16 58.4 C209.51 57.14, 132.82 56.69, 1.36 58.6 M285.84 59.2 C209.41 60.24, 132.2 60.94, -0.12 58.28 M-1.89 58.76 C1.68 41.81, -0.33 21.65, 1.41 -0.2 M0.14 58.26 C0.27 41.8, 1.08 24.88, 0.66 0.55" stroke="#000000" stroke-width="1" fill="none"></path></g><g transform="translate(607.878173828125 72.95936584472656) rotate(0 14 12.5)"><text x="0" y="18" font-family="Virgil, Segoe UI Emoji" font-size="20px" fill="#000000" text-anchor="start" style="white-space: pre;" direction="ltr">34</text></g><g transform="translate(609.3532104492188 159.92190551757812) rotate(0 14.5 12.5)"><text x="0" y="18" font-family="Virgil, Segoe UI Emoji" font-size="20px" fill="#000000" text-anchor="start" style="white-space: pre;" direction="ltr">25</text></g><g transform="translate(689.3406982421875 78.4046859741211) rotate(0 8 12.5)"><text x="8" y="18" font-family="Virgil, Segoe UI Emoji" font-size="20px" fill="#000000" text-anchor="middle" style="white-space: pre;" direction="ltr">0</text></g><g transform="translate(693.2390747070312 159.26405334472656) rotate(0 10 12.5)"><text x="10" y="18" font-family="Virgil, Segoe UI Emoji" font-size="20px" fill="#000000" text-anchor="middle" style="white-space: pre;" direction="ltr">14</text></g><g transform="translate(750.8749389648438 157.9625244140625) rotate(0 42 12.5)"><text x="0" y="18" font-family="Virgil, Segoe UI Emoji" font-size="20px" fill="#000000" text-anchor="start" style="white-space: pre;" direction="ltr">selected</text></g><g transform="translate(769.0750122070312 74.64372253417969) rotate(0 23.5 12.5)"><text x="0" y="18" font-family="Virgil, Segoe UI Emoji" font-size="20px" fill="#000000" text-anchor="start" style="white-space: pre;" direction="ltr">todo</text></g><g stroke-linecap="round"><g transform="translate(679.7875366210938 274.9686584472656) rotate(0 -52.626163141382904 50.17283205998598)"><path d="M-0.51 -0.89 C-18.16 15.97, -88.25 83.41, -106.21 100.31 M1.42 1.25 C-16.28 18.29, -88.77 84.57, -106.67 101.24" stroke="#000000" stroke-width="1" fill="none"></path></g><g transform="translate(679.7875366210938 274.9686584472656) rotate(0 -52.626163141382904 50.17283205998598)"><path d="M-94.39 76.12 C-98.8 79.92, -102.31 87.31, -107.13 102.1 M-93.74 73.82 C-97.05 84.22, -102.27 93.42, -106.22 101.34" stroke="#000000" stroke-width="1" fill="none"></path></g><g transform="translate(679.7875366210938 274.9686584472656) rotate(0 -52.626163141382904 50.17283205998598)"><path d="M-80.48 91.21 C-88.61 90.8, -95.94 94.04, -107.13 102.1 M-79.83 88.91 C-88.07 93.78, -98.3 97.54, -106.22 101.34" stroke="#000000" stroke-width="1" fill="none"></path></g></g><g stroke-linecap="round" transform="translate(17.703155517578125 290.50927734375) rotate(0 269.29689025878906 183.5046844482422)"><path d="M0.44 -0.01 C171.35 0.49, 343.18 1.27, 538.25 -0.59 M0.32 -0.36 C138.06 -0.37, 275.91 -0.28, 538.4 0.32 M539.46 -0.78 C538.42 116.87, 538.3 236.88, 537.92 367.45 M537.99 -0.11 C537.84 74.25, 538.52 149.65, 538.98 367.4 M538.93 367.38 C334.06 369.55, 129.16 369.57, -0.45 367.07 M538.22 367.38 C400.89 367.81, 263.5 368.58, 0.28 367.19 M0.73 365.89 C-2.18 232.94, -2.85 100.23, 1.21 -0.37 M-0.57 366.42 C-0.06 256.15, 0.02 145.32, 0.58 0.51" stroke="#000000" stroke-width="1" fill="none"></path></g><g stroke-linecap="round" transform="translate(423.4031982421875 309.7655334472656) rotate(0 50.078125 17.5)"><path d="M1.59 1.95 C26.49 0.88, 54.24 0.75, 98.31 -1.9 M0.19 0.94 C31.16 -0.07, 60.17 -0.31, 99.88 0.94 M99.54 1.63 C101.99 14.94, 101.02 26.21, 99.47 34.65 M100.26 -0.54 C101.1 9.62, 99.52 18.86, 100.85 35.94 M98.79 34.34 C80.28 37.5, 59.06 33.68, -1.36 35.86 M99.77 35.6 C79.31 34.39, 56.37 34.85, -0.71 35.65 M1.16 36.63 C1.8 23.83, -0.77 14.97, -0.38 0.45 M-0.38 35.32 C0.48 22.49, 0.39 8.01, 0.89 -0.37" stroke="#000000" stroke-width="1" fill="none"></path></g><g transform="translate(441.9813232421875 314.7655334472656) rotate(0 31.5 12.5)"><text x="31.5" y="18" font-family="Virgil, Segoe UI Emoji" font-size="20px" fill="#000000" text-anchor="middle" style="white-space: pre;" direction="ltr">submit</text></g><g stroke-linecap="round" transform="translate(60.993804931640625 353.43426513671875) rotate(0 45.53749084472656 46.90626525878906)"><path d="M-1.42 1.31 C22.99 -0.72, 44.96 1.18, 92.7 1.67 M-0.19 0.23 C25.2 -0.39, 48.61 -0.85, 91.4 0.51 M92.85 -0.75 C89.91 33.6, 92.17 69.61, 92.49 94.79 M90.57 -0.6 C90.91 29.79, 91.17 57.76, 90.65 94.69 M89.15 95.37 C60.33 94.27, 29.06 93.52, -0.75 93.12 M91.82 93.4 C69.73 94.2, 48.27 93.83, -0.31 93.17 M0.22 93.37 C-1.88 68.11, 0.98 37.22, 0.58 -0.57 M-0.72 94.28 C1.11 59.47, 1.28 23.32, -0.26 -0.76" stroke="#000000" stroke-width="1" fill="none"></path></g><g stroke-linecap="round" transform="translate(121.35003662109375 360.72802734375) rotate(0 11.034393310546875 11.953125)"><path d="M-1.2 -0.3 C7.28 -0.67, 11.05 1.2, 20.8 0.32 M0.26 0.64 C6.04 -0.2, 11.05 0.91, 22.68 -0.8 M20.87 -1.99 C20.56 8.81, 23.1 17.35, 23.52 23.51 M22.88 -1 C21.81 6.97, 21.53 12.4, 22.59 23.53 M23.21 23.17 C13.55 24.95, 4.84 22.84, 0.43 22.75 M21.7 24.67 C15.97 23.71, 8.2 23.96, 0.54 23.31 M1.79 23.36 C0.59 15.82, 1.9 9.54, 1.57 -2 M-0.53 23.14 C-0.16 15.14, -0.73 4.2, -0.22 -0.44" stroke="#000000" stroke-width="1" fill="none"></path></g><g transform="translate(80.03129577636719 387.8405303955078) rotate(0 26.5 12.5)"><text x="26.5" y="18" font-family="Virgil, Segoe UI Emoji" font-size="20px" fill="#000000" text-anchor="middle" style="white-space: pre;" direction="ltr">image</text></g><g stroke-linecap="round" transform="translate(186.18443298339844 356.29051208496094) rotate(0 45.53749084472656 46.90626525878906)"><path d="M-1.83 -0.37 C31.68 0.5, 64.84 2.2, 89.22 -0.85 M0.42 -0.81 C26.47 -0.26, 53.18 -0.42, 91.87 0.13 M90.78 -0.89 C91.98 35.64, 89.93 72, 90.5 93.58 M90.12 -0.03 C91.15 31.98, 90.07 66, 92.03 93.79 M89.23 92.7 C66.81 93.82, 43.87 94.42, -0.76 93.24 M90.93 93.89 C54.95 94.35, 18.58 94.65, 0.4 93.9 M0.04 93.09 C2.02 75.37, 1.51 56.88, 0.32 -1.65 M0.8 93.42 C-0.88 57.3, -0.03 22.68, 0.66 -0.08" stroke="#000000" stroke-width="1" fill="none"></path></g><g stroke-linecap="round" transform="translate(246.54066467285156 363.5842742919922) rotate(0 11.034393310546875 11.953125)"><path d="M-0.37 -1.67 C4.6 -1.65, 11.12 -1.65, 21.22 -0.11 M-0.81 -0.36 C6.35 -0.58, 12.03 0.7, 22.2 0.9 M21.18 1.82 C21.1 4.62, 20.83 9.14, 21.83 24.86 M22.04 0.82 C21.25 5, 22.63 11.47, 22.04 23.58 M20.96 23.96 C17.76 25.13, 13.37 22.94, -0.58 25.88 M22.15 24.11 C15.93 24.04, 10.17 24.27, 0.09 22.91 M-0.73 25.63 C0.41 18.7, 0.68 11.37, -1.65 1.59 M-0.39 23.15 C-0.91 16.51, 0.1 9.59, -0.08 -0.94" stroke="#000000" stroke-width="1" fill="none"></path></g><g transform="translate(205.221923828125 390.69677734375) rotate(0 26.5 12.5)"><text x="26.5" y="18" font-family="Virgil, Segoe UI Emoji" font-size="20px" fill="#000000" text-anchor="middle" style="white-space: pre;" direction="ltr">image</text></g><g stroke-linecap="round" transform="translate(312.01255798339844 357.67173767089844) rotate(0 45.53749084472656 46.90626525878906)"><path d="M-0.19 -1.39 C18.49 2.6, 34.99 0.68, 90.73 0.19 M0.8 -0.04 C35.19 0.07, 71.62 -0.5, 91.85 0.72 M92.17 1.37 C92.25 25.7, 93.3 53.26, 89.1 95.13 M91.65 -0.87 C90.02 23.74, 89.78 47.76, 91.66 93.15 M91.2 95.46 C66.84 93.82, 47.21 93.46, -1.16 93.15 M91.82 93.6 C58.5 93.46, 27.71 92.58, 0.47 93.84 M-0.68 94.94 C-0.51 61.76, 0.24 33.81, -0.32 -1.35 M0.53 93.53 C-0.67 74.85, -0.55 55.58, -0.65 0.91" stroke="#000000" stroke-width="1" fill="none"></path></g><g stroke-linecap="round" transform="translate(372.36878967285156 364.9654998779297) rotate(0 11.034393310546875 11.953125)"><path d="M-1.39 0.28 C9.94 -1.42, 16.05 -0.33, 22.26 1.94 M-0.04 -0.97 C8.83 -0.89, 16.38 0.59, 22.79 -0.2 M23.44 0.84 C21.39 9.93, 22.65 14.12, 23.38 23.09 M21.2 -0.27 C21.44 4.67, 21.13 10.94, 21.41 23.42 M23.72 22.6 C15.03 25.91, 7.97 22.76, -0.66 24.86 M21.86 22.99 C14.87 24.01, 6.75 24.54, 0.03 24.11 M1.13 23.15 C-2.19 17.35, -0.05 10.5, -1.35 -1.93 M-0.29 23.15 C0.02 16.32, -0.17 9.34, 0.91 0.63" stroke="#000000" stroke-width="1" fill="none"></path></g><g transform="translate(331.050048828125 392.0780029296875) rotate(0 26.5 12.5)"><text x="26.5" y="18" font-family="Virgil, Segoe UI Emoji" font-size="20px" fill="#000000" text-anchor="middle" style="white-space: pre;" direction="ltr">image</text></g><g stroke-linecap="round" transform="translate(434.85313415527344 360.2686309814453) rotate(0 45.53749084472656 46.90626525878906)"><path d="M-1.35 -1.48 C34.07 -1.15, 64.88 -0.35, 91.22 -1.48 M-0.38 0.42 C30.09 0.23, 58.36 1.26, 90.93 0.2 M91.66 1 C92.55 28.22, 89.64 56.31, 91.87 93.77 M90.1 0.19 C89.54 35.31, 90.27 70.44, 91.04 93.21 M91.4 91.93 C58.28 92.56, 23.89 95.88, -1.11 92.82 M90.79 94.81 C67.57 92.81, 42.11 93.88, -0.18 93.91 M1.81 94.82 C1.6 67.74, 0.07 44.88, 1.05 0.24 M0.33 93.95 C-0.05 67.42, 0.17 41.68, 0.4 0.18" stroke="#000000" stroke-width="1" fill="none"></path></g><g stroke-linecap="round" transform="translate(495.20936584472656 367.56239318847656) rotate(0 11.034393310546875 11.953125)"><path d="M-1.48 1.07 C4.28 -0.98, 10.88 0.3, 20.59 0.49 M0.42 0.52 C5.72 -0.68, 12.79 -0.06, 22.27 -0.07 M23.07 1.59 C22.93 5.55, 23.53 14.52, 22.03 25.51 M22.26 -0.67 C21.61 5.03, 21.06 9.89, 21.47 24.5 M20.18 23.84 C15.78 22.23, 14.46 22.83, -0.99 23.18 M23.07 24.4 C14.54 22.86, 8.49 23.66, 0.1 23.49 M1.01 25.59 C-1.64 16.67, -0.23 10.2, 0.24 -0.5 M0.14 24.29 C-0.76 16.23, -0.69 7.75, 0.18 0.75" stroke="#000000" stroke-width="1" fill="none"></path></g><g transform="translate(453.890625 394.6748962402344) rotate(0 26.5 12.5)"><text x="26.5" y="18" font-family="Virgil, Segoe UI Emoji" font-size="20px" fill="#000000" text-anchor="middle" style="white-space: pre;" direction="ltr">image</text></g><g stroke-linecap="round" transform="translate(63.44688415527344 479.7301788330078) rotate(0 45.53749084472656 46.90626525878906)"><path d="M1.88 -1.7 C37 -0.22, 71.17 2.13, 92.8 0.31 M0.92 0.92 C32.15 -0.41, 65.31 -0.72, 90.67 0.1 M92.84 -1.91 C92.09 30.66, 90.91 57.61, 90.64 91.81 M91.1 -0.84 C92.35 23.97, 92.38 49.89, 91.73 94.47 M91.29 94.01 C69.65 94.93, 43.73 92.41, -0.33 93.32 M90.98 93.75 C70.69 93.64, 48.31 93.94, -0.18 92.91 M0.37 95.53 C1.25 61.76, -0.06 26.37, 1.58 -0.62 M-0.89 94.43 C-0.7 56.99, 0.35 21.28, 0.75 -0.26" stroke="#000000" stroke-width="1" fill="none"></path></g><g stroke-linecap="round" transform="translate(123.80311584472656 487.02394104003906) rotate(0 11.034393310546875 11.953125)"><path d="M-1.7 1.18 C7.57 -0.67, 17.9 1.52, 22.38 1.15 M0.92 -0.41 C8.3 -0.01, 16.66 -0.61, 22.17 0.16 M20.16 1.79 C22.99 5.81, 20.28 9.95, 20.07 23.23 M21.23 0.5 C21.1 9.68, 22.06 18.95, 22.73 23.43 M22.27 25.51 C16.36 22.64, 6.85 23.6, -0.49 22.59 M22.01 24.85 C13.85 23.78, 6.26 23.71, -0.9 24.47 M1.72 24.37 C1.28 17.89, -0.65 15.14, -0.62 1.76 M0.62 23.46 C-0.28 16.68, 0.41 9.01, -0.26 -0.12" stroke="#000000" stroke-width="1" fill="none"></path></g><g transform="translate(82.484375 514.1364440917969) rotate(0 26.5 12.5)"><text x="26.5" y="18" font-family="Virgil, Segoe UI Emoji" font-size="20px" fill="#000000" text-anchor="middle" style="white-space: pre;" direction="ltr">image</text></g><g stroke-linecap="round" transform="translate(190.4000701904297 480.38648986816406) rotate(0 45.53749084472656 46.90626525878906)"><path d="M-1.5 -0.77 C22.8 0.21, 44.72 -0.59, 92.52 -0.39 M-0.89 0.91 C32.72 0.28, 67.48 0.12, 91.08 0.51 M90.04 -0.4 C93.41 24.56, 93.35 48.79, 91.61 93.61 M90.12 0 C90.1 35.65, 91.16 71.52, 91.75 93.08 M92.41 93.29 C59.8 96.2, 27.27 93.85, -1.64 93.93 M90.45 93.49 C65.92 93.66, 40.38 93.53, -0.12 92.85 M0.23 92.54 C-0.49 59.68, 2.07 23.8, 0.49 -0.63 M-0.75 93.39 C-0.53 68.68, -1.04 45.21, 0.63 -0.36" stroke="#000000" stroke-width="1" fill="none"></path></g><g stroke-linecap="round" transform="translate(250.7563018798828 487.6802520751953) rotate(0 11.034393310546875 11.953125)"><path d="M-0.77 1.29 C6.05 1.87, 10.22 1.61, 21.68 1.31 M0.91 -0.58 C7.11 1.07, 13.1 0.2, 22.58 -0.41 M21.66 1.9 C22.47 10.12, 22.42 17.09, 21.87 25.49 M22.07 -0.22 C22 6.08, 22.31 11.15, 21.34 24.51 M21.55 25.49 C15.51 25.98, 4.89 22.42, 0.12 23.46 M21.75 24.05 C15.83 23.67, 9.17 23.64, -0.96 24.73 M-1.27 23.12 C1.49 19.26, 1.45 11.53, -0.63 -0.73 M-0.42 23.91 C-0.6 14.88, 0.67 7.48, -0.36 0.44" stroke="#000000" stroke-width="1" fill="none"></path></g><g transform="translate(209.43756103515625 514.7927551269531) rotate(0 26.5 12.5)"><text x="26.5" y="18" font-family="Virgil, Segoe UI Emoji" font-size="20px" fill="#000000" text-anchor="middle" style="white-space: pre;" direction="ltr">image</text></g><g stroke-linecap="round" transform="translate(312.5000457763672 479.1021270751953) rotate(0 45.53749084472656 46.90626525878906)"><path d="M1.29 -0.88 C29.12 1.97, 60.78 2.31, 89.6 1.17 M-0.17 0 C27.81 -0.09, 55.58 -1.13, 91.12 1 M90.12 0.37 C89.66 31.8, 90.93 66.11, 93.04 92.1 M90.25 0.96 C90.39 20.04, 90.61 39.69, 90.49 94.45 M92.35 92.57 C58.94 95.08, 27.16 93.51, -1.01 92.31 M90.28 94.03 C69.29 93.03, 48.14 92.56, -0.6 93.18 M1.34 93.84 C-1.91 67.59, -0.78 41.33, 0.16 0.24 M0.15 94.81 C0.77 67.64, 0.62 42.48, 0.98 -0.23" stroke="#000000" stroke-width="1" fill="none"></path></g><g stroke-linecap="round" transform="translate(372.8562774658203 486.39588928222656) rotate(0 11.034393310546875 11.953125)"><path d="M-0.88 -0.9 C6.16 0.59, 11.05 -1.61, 23.24 0.16 M0 -0.24 C8.95 -0.47, 16.51 0.08, 23.07 0.58 M22.44 -1.45 C20.32 7.08, 21.01 16.48, 20.36 22.1 M23.03 -0.25 C22.43 6.04, 22.39 11.54, 22.7 24.31 M20.83 22.75 C14.81 22.08, 4.62 23.04, -1.5 22.64 M22.28 23.67 C12.78 23.9, 3.52 23.13, -0.63 23.76 M0.03 22.21 C0.71 15.61, 1.19 8.61, 0.24 -0.47 M1 23.9 C-0.29 18.57, 0.49 14.54, -0.23 0.72" stroke="#000000" stroke-width="1" fill="none"></path></g><g transform="translate(331.53753662109375 513.5083923339844) rotate(0 26.5 12.5)"><text x="26.5" y="18" font-family="Virgil, Segoe UI Emoji" font-size="20px" fill="#000000" text-anchor="middle" style="white-space: pre;" direction="ltr">image</text></g><g stroke-linecap="round" transform="translate(437.7187957763672 482.1958465576172) rotate(0 45.53749084472656 46.90626525878906)"><path d="M-0.56 0.83 C22.84 0.21, 45.38 -0.68, 90.98 -0.89 M0.27 0.36 C30.66 0.08, 62.51 0.79, 91.58 0.78 M92.01 0.39 C92.93 36.59, 93.48 71.02, 92.59 92.19 M91.89 0.13 C91.67 23.59, 91.73 45.57, 91.62 93.99 M91.08 95.14 C62.98 93.87, 35.53 94.67, -0.56 92.91 M90.6 92.91 C62.38 92.67, 35.06 93.19, 0.51 93.7 M-0.76 95.7 C0.45 66.49, -1.07 41.43, -1.06 -1.26 M-0.35 94.43 C0.93 56.82, 0.67 19.52, -0.38 -0.65" stroke="#000000" stroke-width="1" fill="none"></path></g><g stroke-linecap="round" transform="translate(498.0750274658203 489.48960876464844) rotate(0 11.034393310546875 11.953125)"><path d="M0.83 -0.76 C5.71 -1.76, 11.17 -0.04, 21.18 0.92 M0.36 -0.86 C4.23 -0.59, 9.6 0.44, 22.85 0.86 M22.46 1.31 C22.56 10.42, 20.8 18.65, 20.45 22.74 M22.2 0.5 C22.99 7.97, 22.28 15.35, 22.25 23.88 M23.39 22.92 C16.03 22.57, 11.01 23.34, -0.9 24.07 M21.16 23.29 C13.74 23.95, 6.31 24.31, -0.12 23.71 M1.89 24.33 C-1.01 15.71, 0.21 8.64, -1.26 1.91 M0.62 24.66 C0.27 17.68, 0.06 10.08, -0.65 0.13" stroke="#000000" stroke-width="1" fill="none"></path></g><g transform="translate(456.75628662109375 516.6021118164062) rotate(0 26.5 12.5)"><text x="26.5" y="18" font-family="Virgil, Segoe UI Emoji" font-size="20px" fill="#000000" text-anchor="middle" style="white-space: pre;" direction="ltr">image</text></g><g transform="translate(198.8375244140625 619.1177673339844) rotate(0 31 12.5)"><text x="0" y="18" font-family="Virgil, Segoe UI Emoji" font-size="20px" fill="#000000" text-anchor="start" style="white-space: pre;" direction="ltr">...........</text></g><g transform="translate(380.2032165527344 372.527099609375) rotate(0 9.243743896484375 4.350006103515625)" stroke="none"><path fill="#000000" d="M 1.58,-2.07 Q 1.58,-2.07 2.49,-1.40 3.39,-0.74 4.17,0.09 4.95,0.93 5.93,2.40 6.91,3.86 7.45,4.86 7.99,5.85 8.56,4.36 9.13,2.87 10.34,1.96 11.56,1.05 12.47,0.41 13.38,-0.23 15.82,-1.22 18.25,-2.21 18.79,-2.15 19.33,-2.09 19.82,-1.86 20.32,-1.63 20.71,-1.26 21.11,-0.88 21.36,-0.40 21.61,0.07 21.70,0.61 21.79,1.14 21.70,1.68 21.61,2.22 21.36,2.70 21.10,3.18 20.71,3.55 20.31,3.92 19.82,4.15 19.32,4.38 18.78,4.44 18.24,4.49 17.71,4.38 17.18,4.26 16.71,3.98 16.25,3.70 15.90,3.28 15.55,2.87 15.35,2.36 15.14,1.86 15.12,1.31 15.09,0.77 15.23,0.25 15.38,-0.27 15.68,-0.72 15.99,-1.17 16.42,-1.49 16.86,-1.82 17.37,-2.00 17.89,-2.17 18.43,-2.17 18.98,-2.17 19.49,-1.99 20.01,-1.82 20.44,-1.49 20.87,-1.16 21.18,-0.71 21.48,-0.26 21.63,0.26 21.77,0.78 21.74,1.32 21.71,1.87 21.51,2.37 21.31,2.88 20.95,3.29 20.60,3.70 20.13,3.98 19.67,4.26 19.14,4.38 18.61,4.49 18.61,4.49 18.61,4.49 17.94,4.87 17.26,5.24 16.33,5.85 15.40,6.46 14.31,7.24 13.21,8.03 12.19,8.89 11.18,9.76 9.80,10.69 8.43,11.63 6.91,11.61 5.38,11.60 4.34,10.72 3.29,9.83 2.76,8.67 2.23,7.52 1.81,6.52 1.38,5.51 0.76,4.48 0.14,3.45 -0.72,2.76 -1.58,2.07 -1.81,1.85 -2.03,1.63 -2.20,1.36 -2.36,1.09 -2.46,0.79 -2.56,0.50 -2.58,0.18 -2.60,-0.12 -2.55,-0.43 -2.50,-0.74 -2.37,-1.03 -2.24,-1.32 -2.05,-1.57 -1.86,-1.82 -1.62,-2.02 -1.37,-2.21 -1.09,-2.35 -0.80,-2.48 -0.49,-2.54 -0.18,-2.60 0.12,-2.58 0.44,-2.57 0.74,-2.48 1.04,-2.39 1.31,-2.23 1.58,-2.07 1.58,-2.07 L 1.58,-2.07 Z"></path></g><g transform="translate(508.4906921386719 499.0708923339844) rotate(0 9.243743896484375 4.350006103515625)" stroke="none"><path fill="#000000" d="M 1.58,-2.07 Q 1.58,-2.07 2.49,-1.40 3.39,-0.74 4.17,0.09 4.95,0.93 5.93,2.40 6.91,3.86 7.45,4.86 7.99,5.85 8.56,4.36 9.13,2.87 10.34,1.96 11.56,1.05 12.47,0.41 13.38,-0.23 15.82,-1.22 18.25,-2.21 18.79,-2.15 19.33,-2.09 19.82,-1.86 20.32,-1.63 20.71,-1.26 21.11,-0.88 21.36,-0.40 21.61,0.07 21.70,0.61 21.79,1.14 21.70,1.68 21.61,2.22 21.36,2.70 21.10,3.18 20.71,3.55 20.31,3.92 19.82,4.15 19.32,4.38 18.78,4.44 18.24,4.49 17.71,4.38 17.18,4.26 16.71,3.98 16.25,3.70 15.90,3.28 15.55,2.87 15.35,2.36 15.14,1.86 15.12,1.31 15.09,0.77 15.23,0.25 15.38,-0.27 15.68,-0.72 15.99,-1.17 16.42,-1.49 16.86,-1.82 17.37,-2.00 17.89,-2.17 18.43,-2.17 18.98,-2.17 19.49,-1.99 20.01,-1.82 20.44,-1.49 20.87,-1.16 21.18,-0.71 21.48,-0.26 21.63,0.26 21.77,0.78 21.74,1.32 21.71,1.87 21.51,2.37 21.31,2.88 20.95,3.29 20.60,3.70 20.13,3.98 19.67,4.26 19.14,4.38 18.61,4.49 18.61,4.49 18.61,4.49 17.94,4.87 17.26,5.24 16.33,5.85 15.40,6.46 14.31,7.24 13.21,8.03 12.19,8.89 11.18,9.76 9.80,10.69 8.43,11.63 6.91,11.61 5.38,11.60 4.34,10.72 3.29,9.83 2.76,8.67 2.23,7.52 1.81,6.52 1.38,5.51 0.76,4.48 0.14,3.45 -0.72,2.76 -1.58,2.07 -1.81,1.85 -2.03,1.63 -2.20,1.36 -2.36,1.09 -2.46,0.79 -2.56,0.50 -2.58,0.18 -2.60,-0.12 -2.55,-0.43 -2.50,-0.74 -2.37,-1.03 -2.24,-1.32 -2.05,-1.57 -1.86,-1.82 -1.62,-2.02 -1.37,-2.21 -1.09,-2.35 -0.80,-2.48 -0.49,-2.54 -0.18,-2.60 0.12,-2.58 0.44,-2.57 0.74,-2.48 1.04,-2.39 1.31,-2.23 1.58,-2.07 1.58,-2.07 L 1.58,-2.07 Z"></path></g><g transform="translate(384.8000793457031 494.7396240234375) rotate(0 9.243743896484375 4.350006103515625)" stroke="none"><path fill="#000000" d="M 1.58,-2.07 Q 1.58,-2.07 2.49,-1.40 3.39,-0.74 4.17,0.09 4.95,0.93 5.93,2.40 6.91,3.86 7.45,4.86 7.99,5.85 8.56,4.36 9.13,2.87 10.34,1.96 11.56,1.05 12.47,0.41 13.38,-0.23 15.82,-1.22 18.25,-2.21 18.79,-2.15 19.33,-2.09 19.82,-1.86 20.32,-1.63 20.71,-1.26 21.11,-0.88 21.36,-0.40 21.61,0.07 21.70,0.61 21.79,1.14 21.70,1.68 21.61,2.22 21.36,2.70 21.10,3.18 20.71,3.55 20.31,3.92 19.82,4.15 19.32,4.38 18.78,4.44 18.24,4.49 17.71,4.38 17.18,4.26 16.71,3.98 16.25,3.70 15.90,3.28 15.55,2.87 15.35,2.36 15.14,1.86 15.12,1.31 15.09,0.77 15.23,0.25 15.38,-0.27 15.68,-0.72 15.99,-1.17 16.42,-1.49 16.86,-1.82 17.37,-2.00 17.89,-2.17 18.43,-2.17 18.98,-2.17 19.49,-1.99 20.01,-1.82 20.44,-1.49 20.87,-1.16 21.18,-0.71 21.48,-0.26 21.63,0.26 21.77,0.78 21.74,1.32 21.71,1.87 21.51,2.37 21.31,2.88 20.95,3.29 20.60,3.70 20.13,3.98 19.67,4.26 19.14,4.38 18.61,4.49 18.61,4.49 18.61,4.49 17.94,4.87 17.26,5.24 16.33,5.85 15.40,6.46 14.31,7.24 13.21,8.03 12.19,8.89 11.18,9.76 9.80,10.69 8.43,11.63 6.91,11.61 5.38,11.60 4.34,10.72 3.29,9.83 2.76,8.67 2.23,7.52 1.81,6.52 1.38,5.51 0.76,4.48 0.14,3.45 -0.72,2.76 -1.58,2.07 -1.81,1.85 -2.03,1.63 -2.20,1.36 -2.36,1.09 -2.46,0.79 -2.56,0.50 -2.58,0.18 -2.60,-0.12 -2.55,-0.43 -2.50,-0.74 -2.37,-1.03 -2.24,-1.32 -2.05,-1.57 -1.86,-1.82 -1.62,-2.02 -1.37,-2.21 -1.09,-2.35 -0.80,-2.48 -0.49,-2.54 -0.18,-2.60 0.12,-2.58 0.44,-2.57 0.74,-2.48 1.04,-2.39 1.31,-2.23 1.58,-2.07 1.58,-2.07 L 1.58,-2.07 Z"></path></g><g stroke-linecap="round"><g transform="translate(582.1688232421875 516.7021179199219) rotate(0 29.41521658121144 -24.619178668023096)"><path d="M-0.96 -1.13 C8.62 -9.43, 47.77 -42.23, 57.63 -50.13 M0.74 0.9 C10.67 -7.25, 50.38 -40.47, 59.79 -49.04" stroke="#000000" stroke-width="1" fill="none"></path></g><g transform="translate(582.1688232421875 516.7021179199219) rotate(0 29.41521658121144 -24.619178668023096)"><path d="M43.33 -24.58 C48.42 -31.65, 55.62 -39.84, 60.76 -50.41 M45.32 -22.98 C47.99 -28.15, 52.99 -35.28, 58.86 -49.03" stroke="#000000" stroke-width="1" fill="none"></path></g><g transform="translate(582.1688232421875 516.7021179199219) rotate(0 29.41521658121144 -24.619178668023096)"><path d="M29.89 -40.09 C39.13 -42.21, 50.52 -45.57, 60.76 -50.41 M31.88 -38.49 C37.9 -39.74, 46.18 -43.09, 58.86 -49.03" stroke="#000000" stroke-width="1" fill="none"></path></g></g><g stroke-linecap="round" transform="translate(662.0781860351562 346.15838623046875) rotate(0 107.02813720703125 109.359375)"><path d="M-0.66 0.86 C59.25 -0.4, 116.11 1.27, 212.32 0.85 M-0.73 0.48 C82.23 1.33, 166 0.94, 214.14 0.11 M213.88 -0.32 C212.63 53.93, 213.96 105.77, 215.41 219.62 M214.37 0.53 C213.06 71.91, 213.14 142.76, 213.81 219.21 M213.32 219.1 C168.69 217.24, 121.09 215.88, 1.56 217.72 M214.28 219.45 C150.74 216.78, 87.3 217.44, 0.17 218.27 M-0.17 218.59 C-1.65 135.32, -2.16 52.13, -1.2 1.38 M0.46 219.18 C0.07 134.78, 0.69 51.04, 0.14 0.16" stroke="#000000" stroke-width="1" fill="none"></path></g><g transform="translate(682.2999877929688 382.6771240234375) rotate(0 101 14.5)"><text x="0" y="22" font-family="Virgil, Segoe UI Emoji" font-size="20px" fill="#000000" text-anchor="start" style="white-space: pre;" direction="ltr">确认提交选片结果吗？</text></g><g transform="translate(746.9157104492188 474.6177673339844) rotate(0 24.5 14.5)"><text x="0" y="22" font-family="Virgil, Segoe UI Emoji" font-size="20px" fill="#000000" text-anchor="start" style="white-space: pre;" direction="ltr">OK！</text></g><g stroke-linecap="round" transform="translate(717.7562866210938 467.6396179199219) rotate(0 46.53125 21.109375)"><path d="M0.11 -0.44 C18.17 1.08, 41.59 2.41, 91.22 1.98 M-0.19 0.62 C19.18 -0.72, 39.63 -0.08, 93.06 0.7 M94.93 0.27 C93.66 11.02, 94.82 21.64, 94.77 41.89 M93.51 -0.24 C93.06 14.31, 93.41 27.2, 93.73 43.05 M91.97 43.38 C70.81 39.91, 46.14 40.14, -1.68 40.84 M93.72 42.29 C74.63 42.03, 55.42 41.11, -0.32 42.38 M-0.31 41.35 C-0.67 28.46, 0.55 18.51, 1.65 -1.33 M-0.8 41.83 C-0.26 30.71, -0.48 20.09, 0.88 0.59" stroke="#000000" stroke-width="1" fill="none"></path></g></svg>